<svg version="1" xmlns="http://www.w3.org/2000/svg" width="2666.667" height="2666.667" viewBox="0 0 2000.000000 2000.000000"><path d="M923.5 58.2c-.2.7-.9 3.8-1.5 6.8-1.3 6.8-1.5 7.7-3.4 17-.8 4.1-1.7 8.6-2 10-.2 1.4-3.4 16.7-7 34s-6.7 32.6-7 34c-.2 1.4-.9 4.5-1.5 7-.5 2.5-1.2 5.6-1.5 7-.6 3.1-2.5 12.7-3.1 16-.3 1.4-.7 3.6-1 5-.5 2.7-1.1 8.9-2 22-.3 4.7-.8 10.7-1 13.5-.3 2.7-.7 8.6-1 13-.3 4.4-.7 10.5-1 13.5-.2 3-.7 8.6-1 12.5-1 13.3-1.5 20-2 25.5-.2 3-.7 9.5-1 14.5-1.3 18.2-2.3 30.5-3.9 46-.3 3.3-.9 8.9-1.2 12.5-.3 3.6-.7 7.6-.9 9-.2 1.4-.7 6.1-1 10.5-.4 4.4-.8 9.1-1 10.5-.2 1.4-.6 5.9-1 10s-.8 8.6-1 10c-.2 1.4-.6 5.4-1 9-.3 3.6-.8 8.5-1 11-.7 6.5-1.5 14.8-2 20-.2 2.5-.6 6.5-.9 9-.3 2.5-.8 6.7-1 9.5-.3 2.7-3 15.8-6.1 29-3.1 13.2-5.9 25.1-6.1 26.5-.3 1.4-1 4.3-1.6 6.5-.6 2.2-2.1 8.7-3.4 14.5-1.4 5.8-2.6 11.2-2.8 12-.7 2.4-2.7 11.3-3.2 13.6-.8 4.3-10.5 45.7-12.1 51.7-.4 1.4 0 1.7 2.4 1.3 1.5-.2 5.1-.7 7.8-1 2.8-.4 6.1-.8 7.5-1.1 1.4-.2 4.8-.7 7.5-1 2.8-.3 5.7-.8 6.5-1 .8-.2 4.2-.6 7.5-1 3.3-.3 8.5-1 11.5-1.5s7.3-1.1 9.5-1.4c2.2-.3 7.4-1 11.5-1.6 4.1-.5 9.3-1.3 11.5-1.5 2.2-.3 5.1-.8 6.5-1.1 1.4-.2 4.3-.6 6.5-.9 2.2-.2 5.4-.6 7-.9 1.7-.3 6.8-1 11.5-1.6 4.7-.6 9.6-1.3 11-1.5 6.8-1.1 16-2.4 20.5-3 8.8-1 11.5-1.7 11.6-2.9.1-2-.2-12.9-.6-18.6-.2-3-.7-10.7-1-17-.3-6.3-.8-14.7-1-18.5-.2-3.9-.6-12.9-1-20-.3-7.2-.8-15.3-1-18-.2-2.8-.7-11.1-1-18.5-1.1-22.8-2.1-35.5-3.1-37.1-.2-.4-.6-2.4-.9-4.5-.3-2.2-1-6.2-1.5-8.9-.5-2.8-1.1-6.8-1.4-9-.6-4-.9-5.9-2.6-15-.5-2.8-1.2-6.8-1.5-9-.3-2.2-.7-4.7-1-5.5-.2-.8-.7-3.7-1-6.4-.3-2.7-.7-5.1-.9-5.5-.2-.3-.7-2.9-1-5.6-.3-2.8-.8-6.1-1.1-7.5-.3-1.4-1-5.4-1.5-9-.6-3.6-1.2-7.4-1.4-8.5-.5-2.6-1.5-8.5-3.2-18.5-.3-1.9-.7-4.4-.9-5.5-.2-1.1-.8-5.3-1.4-9.3-.6-4-1.3-9.4-1.6-12-.3-2.6-.8-5.8-1-7.2-.2-1.4-1.3-9.7-2.5-18.5-1.1-8.8-2.2-17.1-2.4-18.5-.3-1.4-.7-4.8-1-7.5-.8-7-1.5-12.4-2.1-16.4-.3-1.9-1.5-10.5-2.6-19-1.1-8.6-2.2-17-2.4-18.6-.3-1.7-.6-4.6-.9-6.5-.2-1.9-.7-5.5-1-8-.6-4.3-1-9.9-2.1-34.5-.3-6.1-.7-14.4-1-18.5-.2-4.1-.7-13.1-1-20-.3-6.9-.8-15.7-1-19.5-.2-3.9-.7-12.4-1-19-.3-6.6-.8-15.2-1-19-.2-3.9-.4-8.4-.5-10v-3l-7-.3c-5-.1-7.2.2-7.5 1zM1328.1 311.2c-1.1 1.8-9 13.2-17.5 25.3-8.6 12.1-16 22.7-16.6 23.5-1.2 1.7-24.7 35.4-27 38.6-.8 1.2-3.9 5.6-6.8 9.7-5.3 7.8-12.4 16.5-23 28.5-3.3 3.7-8.1 9.2-10.7 12.2-2.6 3-7.4 8.4-10.5 12-3.2 3.6-12.6 14.4-21 24s-18 20.6-21.3 24.3c-6.7 7.6-15 17.9-24.7 30.7-3.6 4.7-6.7 8.7-7 9-.3.3-2.8 3.4-5.5 7-2.8 3.6-5.5 7.2-6.2 8-8.6 10.7-50.4 65.3-50.1 65.5.4.4 31.1 15.3 46.3 22.5 4.4 2.1 16.1 7.7 26 12.5 9.9 4.8 21.2 10.2 25 12 3.9 1.8 12.1 5.8 18.3 8.8l11.3 5.6 1-2.7c.6-1.5 1.5-3.8 2.1-5.2.5-1.4 1.1-3.2 1.3-4 .2-.8 5.9-18.2 12.8-38.5 6.8-20.4 15.6-46.6 19.5-58.4 4-11.7 7.9-22.9 8.7-24.7 3.7-8.4 4.5-10.2 6.4-15.4 1.2-3 2.6-6.4 3.1-7.5 4.1-8.7 37.2-90.7 40.8-101 8.1-23.7 36.3-106.9 38.2-112.9 1.1-3.3 1.7-6.3 1.5-6.6-.5-.8-10.8-6-11.8-6-.3 0-1.4 1.5-2.6 3.2zM485.5 360.1c-2.7 1.8-5.2 3.3-5.4 3.5-.4.3 4.8 14.8 7.5 20.9.7 1.6 4.2 10.6 7.7 20 14.2 37.2 24.5 63.9 39.1 101 5.9 14.8 15.2 38.5 20.7 52.5s10.7 26.8 11.4 28.5c.7 1.6 2.4 5.9 3.8 9.5 1.3 3.6 8.3 21.8 15.6 40.5 20.2 52.1 22.2 57.1 33.1 85.5 5.7 14.6 10.4 26.7 10.5 26.8.4.5 15.9-11 16.3-12.1.2-.4.8-.7 1.4-.7.5 0 1.5-.6 2.2-1.3 1.2-1.1 27.6-20.9 78.5-58.5 11.3-8.4 20.6-15.7 20.6-16.1 0-.5-1.1-2.2-2.5-3.8-1.4-1.5-4.7-5.5-7.5-8.8-2.7-3.3-5.4-6.5-6-7.1-.5-.6-3.2-3.7-6-6.9-2.7-3.2-6.8-7.9-9-10.5-4.8-5.5-10-11.6-27.5-32-14.6-17.1-22-25.7-23.5-27.4-.6-.6-4-4.7-7.5-9-3.6-4.4-14.1-17.2-23.3-28.5-9.3-11.3-17.6-21.5-18.5-22.6-1-1.1-9.8-11.9-19.7-24-15.6-19.1-21.5-26.1-34.6-41-3.6-4-51.1-58.6-62.2-71.4-4.9-5.5-9.1-10.1-9.5-10.1-.4 0-2.9 1.4-5.7 3.1zM1951.5 419.3c-1.1.8-6.9 4-13 7.2-6 3.2-11.4 6.1-12 6.5-.5.4-4.6 2.7-9 5-4.4 2.4-12.5 6.8-18 9.8-5.5 3-12.5 6.8-15.5 8.4-3 1.7-12.9 7.1-22 12-9.1 5-19.3 10.6-22.8 12.5-3.4 1.8-7.9 4.3-10 5.5-7.1 4-32.8 16.6-35.2 17.3-.3.1-3.4 1.5-7 3.2-10.8 5.1-23.9 11.2-35 16.3-5.8 2.6-15 6.9-20.5 9.5-5.5 2.6-18.1 8.4-28 13-9.9 4.6-22.7 11-28.5 14.3-12.9 7.3-18.8 10.5-24.2 13.5-2.4 1.3-17.1 9.6-32.8 18.4-45.3 25.5-56.3 31.6-60 33.4-1.9.9-22.4 9-45.5 17.9-86 33.2-93.9 36.3-103.3 40.7-3.9 1.8-7.4 3.3-7.7 3.3-.2 0-3.3 1.3-6.7 2.9-3.5 1.5-9.7 4.3-13.8 6.1-4.1 1.8-9.4 4.1-11.7 5.1-2.4 1.1-6.2 2.7-8.5 3.8-2.4 1-13.7 6-25.3 11.1-11.5 5-22.3 9.8-24 10.5-20.4 9.1-35.5 15.5-36.4 15.5-.8 0-.9.5-.2 1.7.8 1.5 10.4 14.8 12.8 17.8.4.5 5.1 6.8 10.3 14 9.2 12.7 26.4 35.9 44.2 60 4.9 6.6 9.3 12.6 9.7 13.4.6 1 5.5-1.8 20.2-11.5 10.7-7 27.3-17.9 36.9-24.3 9.6-6.3 18.3-12 19.2-12.6 1-.5 13.1-8.5 27-17.6 13.9-9.2 37.7-24 52.8-32.9 15.1-9 32.9-19.5 39.5-23.5 6.6-3.9 21.2-12.5 32.4-19.1 11.2-6.5 22.9-14.1 26-16.8 3.1-2.7 9.4-8.3 14-12.5 4.7-4.2 11-9.9 14.1-12.6 6-5.4 22-19.7 25.6-23 1.2-1.1 3.7-3.4 5.6-5 1.8-1.7 7.4-6.6 12.3-11 5-4.4 10.8-9.6 12.9-11.5 2.2-1.9 4.7-4.2 5.6-5 12.2-11.4 16.6-14.6 53.5-38.5 2.8-1.8 13.6-8.8 24-15.7 10.5-6.8 24.9-16.2 32-20.8 13.7-8.9 54.3-36.1 78-52.1 15.1-10.3 46.7-31.7 65.7-44.5 6.5-4.3 11.8-8.3 11.8-8.7 0-1.2-6.3-11.7-7-11.7-.3 0-1.4.6-2.5 1.3z"/><path d="M42.2 631.4c-3.8 8.5-4 8 3.5 12.9 3.7 2.4 12.4 7.9 19.3 12.1 6.9 4.3 19.9 12.4 29 18.1 9.1 5.7 19.2 12 22.5 14.1 24.8 15.3 35.2 21.9 36.5 22.9.8.7 5.3 3.3 10 5.7 19.6 10.4 28.4 15 44.5 23.3 16.7 8.6 29.7 15.4 52.5 27.2 21.4 11.2 46.1 23.3 47.5 23.3.2 0 5 2.2 10.7 4.8 5.7 2.7 17.5 8.2 26.3 12.2s16.2 7.5 16.4 7.7c1.1.8-1 1.2-9.4 1.8-5 .3-11 .8-13.5 1-2.5.2-8.2.7-12.6 1-4.5.3-9.5.8-11 1-1.6.2-7.4.6-12.9 1s-10.7.9-11.5 1.1c-.8.1-3.7.3-6.5.3-5 .1-5 .1-10 6.9-2.7 3.7-19.7 26.5-37.8 50.7-38 51-33.2 44.5-45.6 61.2-5.4 7.3-10.8 14.5-12 16-2.3 3.1-47.5 63.7-49.5 66.5-1.2 1.7-3.4 2.3-13.1 3.2-7.4.7-16 1.8-16.2 2-.6.5-.9 12.7-.4 13.3.7.9.5.9 8.1 1.8 3 .4 5.6.8 5.6.8.1.1-2.7 4-6.2 8.7-3.5 4.7-7.2 9.6-8.1 10.9-2.4 3.2-45.4 60.9-67.9 91.1-10.1 13.5-18.6 25-19.1 25.5-.4.6-2.1 2.7-3.6 4.8l-2.8 3.7 6.8-.5c3.7-.2 10.8-.7 15.8-1 5-.3 11.7-.8 15-1 7.2-.6 21.8-1.6 30-2 3.3-.2 9.6-.6 14-.9 8.8-.7 18.7-1.3 31-2.1 4.4-.3 10.9-.8 14.5-1 3.6-.3 10.3-.7 15-1 4.7-.3 11.7-.7 15.5-1 6.8-.5 11.1-.8 28-2 4.4-.3 11.8-.7 16.5-1 4.7-.3 11-.7 14-1 3-.2 10.2-.7 16-1 5.8-.3 12.5-.8 15-1 4-.3 17.8-1.3 30-2 5.3-.3 21.2-1.4 29-2 3-.2 10-.7 15.5-1 5.5-.4 10.2-.7 10.5-.7 2.5-.2 2.6.6 1.3 8.4-.7 4.6-1.5 10.1-1.8 12.3-.4 2.2-.8 5.1-1 6.5-.2 1.4-.7 4.5-1 7-.3 2.5-.8 5.2-1 6-.2.8-.6 3.7-1 6.5-.5 4.4-2.9 20.5-4 27.5-.3 1.4-.7 5-1.1 8-.3 3-1.1 6-1.7 6.7-.7.6-16 7.1-34.2 14.3-84.2 33.6-75.9 29.9-100.5 44.9-21.6 13.2-60.9 37.2-64 39.2-9.7 6-26.9 16.4-28.5 17.3-4 2.2-27.5 16.8-27.5 17.1 0 .4 5.1 11.9 5.5 12.3.2.3 31.9-8.6 94.2-26.4 14.5-4.1 27.1-7.7 28-7.9 1-.2 9.7-2.7 19.3-5.5 15.2-4.4 22.6-5.8 42.5-8.6 2.2-.3 5.1-.7 6.5-.9 1.4-.3 4.8-.7 7.5-1 2.8-.3 5.7-.8 6.5-1 .8-.2 3.8-.7 6.5-1 2.8-.3 6.1-.8 7.5-1 2.4-.4 9.4-1.3 15.5-2 1.7-.2 5.9-.8 9.5-1.4 3.6-.5 8.5-1.3 11-1.6 2.5-.3 6.3-.8 8.5-1.2 2.2-.3 5.1-.7 6.5-.8 4.2-.5 13.3-1.7 22-3 6.5-1 9.7-1.5 14.4-2.1 2.7-.3 5.8-.8 7-1 1.2-.2 3.9-.6 6.1-.9 4.3-.5 7.7-1.1 10.3-1.9 1.6-.5 5.8-.8 33.2-2.1 5.8-.3 15-.7 20.5-1 5.5-.2 15.6-.7 22.5-1 6.9-.3 16.3-.8 21-1 10.8-.6 25.1-1.3 41-2 6.9-.3 17.2-.8 22.8-1.1l10.4-.5-20.8 30.8c-54.3 80.5-80.6 119.7-134.8 200.7l-36.8 54.9 4.9 4.9 5 5 50.4-35.4c27.7-19.5 59.6-41.9 70.9-49.8 11.3-7.9 21.7-15.3 23.1-16.4 1.5-1.2 3.9-3 5.4-4.1 1.5-1.1 14.5-10.8 28.9-21.5 14.4-10.7 45.4-33.8 68.9-51.4 23.5-17.5 42.7-32.1 42.7-32.5 0-.8-25.1-25.2-90-87.9l-9.4-9.2-2.1 2.6-2.1 2.6-18.4-9.1c-10.1-5-17.7-9.3-16.9-9.5.8-.3 5.5-1.5 10.4-2.7 5-1.1 9.7-2.2 10.5-2.5.8-.2 3.1-.8 5-1.2 2.2-.6 3.4-1.4 3.2-2.3-.3-1.6-.8-2.7-25.9-53.9-10.4-21.2-23.6-48.1-29.3-59.8-5.8-11.6-10.9-21.2-11.5-21.2-.5.1-3.2 1.6-6 3.5-2.7 1.9-5.1 3.2-5.3 3.1-.8-.9-1.9-6.5-1.3-7.3.5-.7 39-10.7 41.1-10.6.3.1 1.5-.3 2.8-.8 1.3-.5 3.5-1.1 5-1.4 2.7-.5 3.6-.7 10.7-2.4 2.2-.6 4-.9 4.1-.8.1.1 1.5 5.8 3.2 12.7 1.7 7.2 4.7 16.3 7.1 21.4 2.2 4.8 4.1 8.9 4.1 9.1 0 .1 2.9 6.3 6.4 13.6 3.5 7.4 8.3 17.9 10.6 23.4 4.9 11.6 19.3 40.8 23.6 47.9 26.3 43.6 55 76.8 93.9 108.5 2 1.6 9.6 7.2 21 15.5 25.3 18.4 60 36.3 92 47.5 8.3 2.9 15.7 6.4 24 11.5 6.6 4 16.5 10 22 13.4 11 6.6 7.8 5.9 34.5 7.8 3 .2 8.9.6 13 .9 4.1.4 10 .8 13 1 3 .3 8.7.7 12.5 1 15 1.2 17.3 1.4 26.5 2 5.2.4 11.1.8 13 1 8.2.8 24.8 1.9 29 1.9 2.9 0 21.5-5.2 53-14.8 26.7-8.1 52.3-15.8 57-17.2 17.2-5 21.6-6.7 26-10.3 4-3.2 27.1-22.2 39-32.1 2.5-2.1 7.4-6.2 11-9.1 3.6-3 7.4-6.1 8.5-7 9.1-7.7 22.4-18.6 29-23.9 4.4-3.6 8.7-7.2 9.6-8.1.8-.9 19.1-24.9 40.5-53.4l38.9-51.9 11.3-27.6c6.2-15.1 11.4-28 11.6-28.5.1-.6 1-2.7 1.9-4.9.9-2.1 1.7-4.2 1.7-4.7s.3-.9.8-1c1-.1 9.5-.7 17.7-1.3 18.9-1.3 28.5-1.8 28.5-1.5 0 .2-.4 1.9-.9 3.6-1.1 3.9-1.1 3.9 11.4 4.8 5 .3 11.3.8 14 1.1 2.8.2 8 .6 11.7.9 3.6.3 8.8.7 11.5.9 5.7.6 14.9 1.3 25.3 2.1 4.1.3 9.3.8 11.5 1 2.2.3 7.2.7 11 1 6.9.5 13.9 1.1 24.5 2 3 .2 8.7.7 12.5 1 11.8.9 35.1 3.2 40.3 4 1.3.2 5.3.7 9 1.1 8.2.8 8.5.9 7.8 4.2-.3 1.5-.8 4.5-1.2 6.7-.3 2.2-1.2 8.1-1.9 13.1-.8 5.1-1.7 11.4-2 14-.3 2.7-.8 6-1 7.4-.3 1.4-.7 3.6-.9 5-.6 4-1.9 12.4-2.1 14-1.6 12.5-.3 10.5-17.8 27.3-16.8 16-24.3 23.2-29.5 28l-3 2.9-9.3-6.8c-5.2-3.7-21.8-16.3-36.9-27.9-15.1-11.6-31.3-24-36-27.6-4.7-3.5-8.7-6.6-9-6.9-2.3-2.5-52.4-40-53.1-39.8-.5.2-16.4 22.6-35.3 49.8-18.9 27.2-35.8 51.4-37.5 53.7-1.7 2.3-3.1 4.6-3.1 5.1s1.9 1.7 4.3 2.7c2.3 1 5.6 2.3 7.2 3 1.7.7 15.4 6.3 30.5 12.5 36.2 14.8 39.3 16.1 68.5 27.9 13.8 5.6 25.9 10.6 27 11.1 3.9 1.8 14 5.8 18.5 7.3 2.5.9 12.4 4.3 22 7.7 9.6 3.4 18.6 6.6 20 7 1.4.4 9.7 3.4 18.5 6.5s18.5 6.5 21.5 7.5 9.3 3.2 14 4.9c4.7 1.6 16.2 5.6 25.5 8.9 9.4 3.3 19.5 6.9 22.5 8 3 1 13.8 5.8 24 10.5 10.2 4.6 29.1 13.3 42 19.2 12.9 5.9 27.7 12.7 32.8 15.1 5.1 2.4 9.5 4.4 9.6 4.4.3 0 17.2 7.7 45.4 20.6 1.8.8 3.6 1.2 4.1.9.6-.3 2.3-3 3.9-5.9l2.9-5.4-10.1-7.2c-5.6-3.9-18.6-13.2-29.1-20.6-10.4-7.4-21.3-15.2-24.1-17.2-2.8-2-6-4.3-7-5-2.1-1.4-38.2-27-59.4-42.1-7.4-5.3-14.4-10.3-15.7-11.1-1.2-.8-12.2-8.7-24.5-17.5-12.2-8.8-24.8-17.8-27.9-20-6.2-4.4-27.3-19.5-30.2-21.7-1.6-1.2-1.4-1.4 2.5-1.4 4.9-.1 33.4-1.3 42.2-1.9 3.2-.2 11.8-.6 19-.9 7.2-.3 16.9-.8 21.6-1.1 4.7-.2 14.6-.7 22-1 7.4-.3 16.7-.7 20.5-1 7.4-.4 28-1.4 43-2.1 11.1-.4 29.4-1.3 40-1.9 4.4-.2 13.9-.7 21-1 7.2-.3 16.2-.7 20-1 3.9-.2 13.6-.6 21.7-1 18.8-.8 27-1.3 27.4-1.8.2-.2-14.9-7.8-33.6-17-20.9-10.4-34.1-17.4-34.4-18.5-.3-.9-1-3.7-1.5-6.2s-2.5-11.9-4.4-21c-1.9-9.1-6.5-30.7-10.2-48-3.6-17.3-6.8-32.4-7.1-33.5-.2-1.1-.7-3.4-1-5-.3-1.7-1.3-6.7-2.3-11.3-1.1-4.5-1.6-8.4-1.2-8.7.4-.2 1.8-.6 3.2-.9 3-.5 17.6-4 46.9-11.2 12.4-3.1 23.2-5.7 24-5.9.8-.2 3.5-.8 6-1.4 2.5-.7 5.6-1.4 7-1.7 2.8-.6 13.6-3.2 16.1-4 1.2-.3 1.9.4 2.3 2.3.7 2.7 12.9 41.3 14.6 46.3.5 1.4 3.9 11.8 7.5 23.2 3.6 11.5 6.7 20.8 6.8 20.8.2 0 .3-5.5.3-12.3.1-6.7.5-37.4.8-68.2.4-30.8.9-68.8 1.1-84.5.2-15.7.6-47.6.9-71l.5-42.5-2.9 6c-1.6 3.3-5.5 11.4-8.6 18-3.1 6.6-7.2 15.4-9.2 19.5-1.9 4.1-3.6 7.8-3.6 8.1-.1.3-1 2.2-2.1 4.2-1.3 2.5-3.3 4.2-6.5 5.6-2.5 1-23.6 9.9-47 19.6-23.4 9.7-44.5 18.4-47 19.5-2.5 1-4.6 1.7-4.8 1.5-.2-.2.1-2 .7-4.1.6-2.2 1.3-5.7 1.6-7.9.4-2.2.8-4.7 1-5.5.2-.8.7-3.1 1-5 .3-1.9.8-4.2 1-5 .2-.8.7-3.1 1-5 .3-1.9 1-5.1 1.5-7 .5-1.9 1.2-5.3 1.6-7.5.3-2.2 1.7-9.4 3-16 1.4-6.6 2.7-13.1 2.9-14.5 1.3-7.1 4.4-21 4.9-21.8.3-.5 8.3-3.7 17.9-7.1l17.3-6.2-1.1-6.4c-.5-3.5-1.3-6.6-1.6-6.9-.3-.4-6.5-.7-13.7-.7-15.3-.1-14.2 1.2-11.2-13.5 1.1-5.5 2.3-11.3 2.6-12.9.2-1.7.7-3.7.9-4.5.2-.8.6-2.6.9-4 .4-2.4 2.7-14.2 7.8-39.6l2.2-11.1 25.8-15.9c14.2-8.7 26.7-16.4 27.8-17 4-2.2 3.4-2.6-3-2-8 .8-15.3 1.4-24.5 2.2-3.8.3-9 .7-11.5.9-2.5.2-8.3.7-13 1-4.7.3-10.1.8-12 1-1.9.3-7.1.7-11.5 1-4.4.3-9.8.7-12 1-2.2.2-7.8.7-12.5 1-4.7.3-10.3.8-12.5 1-2.2.2-7.8.7-12.5 1-4.7.4-10.3.8-12.5 1-8.2.8-16.2 1.4-24.5 2-4.7.3-10.3.8-12.5 1-2.2.3-7.6.7-12 1-4.4.3-9.6.7-11.5 1-1.9.3-7.5.7-12.5 1-4.9.3-11 .7-13.5 1-4.6.5-17.8 1.6-24 2-1.9.1-6.9.5-11 .9-7.4.7-9.8.9-25.5 2-4.4.4-9.8.8-12 1.1-2.2.2-8 .7-13 1.1-4.9.3-9.6 1.1-10.3 1.7-1.2.9-35.2 46.1-58.7 77.9l-7.9 10.8-33.1.1c-18.1 0-36.5 0-40.9-.1l-7.8-.1.6 3.3c1 5.2 1.5 8.1 2.1 10.8.2 1.4.7 4.1 1 6 .3 1.9 1 6 1.5 9s1.2 7.2 1.6 9.4c.3 2.1.8 4.8 1 6 .2 1.1.7 3.4.9 5.1 1.2 6.4 2.5 14.1 3 16.5.3 1.4 1.2 7.1 2.1 12.6l1.7 10.1-13.1 17.7c-7.3 9.7-13.4 17.6-13.6 17.6-.2 0-.3-1.2-.3-2.8 0-1.5-.3-12.4-.7-24.2-.7-23.8-.4-22.6-9.6-39-11.8-21-21.7-40-23.3-45-.9-2.5-3-8.1-4.7-12.5-1.8-4.4-4.1-10.2-5.2-12.9-3.7-9.3-17.6-36.4-25.3-49.2-29.7-49.5-71-93.1-116-122.3-4.4-2.9-8.7-5.8-9.5-6.6-1.3-1.1-14.1-8.1-59-31.8-5.2-2.7-12.6-6.7-16.5-8.7-3.8-2-12.4-6.5-19-10-6.6-3.4-13.3-7-15-8-1.6-1-9.1-4.9-16.5-8.8l-13.5-7.1-23 .4c-26.4.4-109.6 1.7-126 1.9-7.8.1-11.9.6-14 1.7-1.6.9-7.7 4.1-13.5 7.1-5.8 3.1-12 5.9-13.8 6.3-1.8.4-4.3 1.7-5.5 3-1.2 1.2-6 4.3-10.7 6.7-4.7 2.5-11.9 6.3-16 8.5s-12.4 6.6-18.5 9.8c-6 3.2-11.6 6.2-12.3 6.8-.7.6-2.9 1-4.8.9-1.9-.1-4.6.3-6 .8-2.1.8-2.4 1.3-1.5 2.4.7.8.8 1.6.4 1.9-1.8 1.1-10.4 5.7-20.8 11.2-6 3.2-15.1 8.6-20.1 12-4.9 3.4-15.3 10.5-23 15.7-7.6 5.3-25.3 17.4-39.1 26.9-13.9 9.6-28.4 19.5-32.2 22.1-6.5 4.5-7.3 5.4-11.9 14.5-2.7 5.4-9.9 19.5-15.9 31.3-32.2 62.8-41.1 80.8-41.7 83.5-.4 1.6-.9 4.3-1.2 6-.3 1.6-2.1 10.9-4 20.5-2 9.6-3.8 18.6-4 20-.2 1.4-1.1 5.4-1.8 9-.8 3.6-1.7 8.1-2 10-.3 1.9-2.1 11.2-4.1 20.7-1.9 9.4-3.5 17.4-3.5 17.6 0 .3-2.4 1.3-5.2 2.3-2.9.9-7.6 2.7-10.4 4l-5.1 2.2.8-4.1c.4-2.3 1-6.2 1.4-8.7.4-2.4.8-4.7 1-5 .1-.3.6-2.5.9-5 .3-2.5.8-5.6 1.1-7 .3-1.4.8-4.5 1.1-7 .3-2.4.6-4.9.7-5.5.1-.5-.2-.9-.8-.9-.5.1-4.9.5-9.8.8-8.7.6-8.7.6-8.2-1.6.7-3 6.3-30.6 6.9-33.8.4-2.4 1.9-10 2.1-11 .3-.9 1.8-8.5 2.1-10.5 1.7-9.3 2.7-12.5 3.7-11.8.7.3 3.7 2.6 6.8 4.9l5.6 4.3 2.7-9.2c1.5-5.1 4.5-15.1 6.7-22.2 5.3-17 8.9-29 14-45.5 2.2-7.4 5.9-19.4 8.1-26.5 2.2-7.2 4.2-14 4.5-15.3.3-1.3 1.5-2.9 2.7-3.6 1.1-.8 6.8-4.4 12.6-8l10.5-6.7-7 .6c-3.8.4-8.3.8-10 1-1.6.2-4.3 0-6-.5-3.3-1-62.8-20.1-88.5-28.5-9.1-3-22.1-7.3-29-9.5-6.9-2.3-21.5-6.5-32.5-9.5s-24.3-6.7-29.5-8.1c-5.2-1.4-10.2-2.7-11-2.9-.8-.2-3.5-.9-6-1.6-2.5-.7-4.9-1.3-5.5-1.5-.5-.1-4.6-1.2-9-2.4-4.4-1.1-8.7-2.3-9.6-2.5-.9-.2-4.7-1.2-8.5-2.3-3.8-1.1-14.1-3.9-22.9-6.2-14.9-3.9-28.9-9.2-61.7-23.4-1.8-.8-13.2-5.5-25.3-10.6-12.1-5-23.3-9.8-25-10.5-1.6-.7-7-3-12-5-4.9-2.1-10.8-4.5-13-5.5-6.4-2.7-9.9-4-12-4.4-1.1-.2-10.1-2.7-20-5.4-9.9-2.8-21.6-6-26-7.2-4.4-1.1-10.9-2.9-14.5-4-3.6-1.1-14.1-4-23.5-6.5-9.3-2.6-20.1-5.5-24-6.6-3.8-1-10.4-2.8-14.5-3.9s-8.3-2.3-9.2-2.6c-1.2-.4-2.2.7-3.6 4zm1002.3 37.5c6.6 3.5 12.2 6.5 12.5 6.8.5.5-1.5.1-15.5-2.6-30-5.8-51.1-7.6-88.7-7.5-14.8 0-26.8-.3-26.8-.8 0-.4 2.1-.8 4.8-.9 61.9-.8 78.7-1.1 78.9-1.2.1-.1 5.2-.2 11.5-.2l11.3.1 12 6.3zM916 665.6c0 .8-.6 1.5-1.2 1.5-.7.1-2.4.2-3.8.3-2.7.2-12.8 1.5-16.4 2.1-25.1 4.2-22.7 3.8-30 5.5-2.7.6-5 .9-5.2.7-.2-.2 1.7-1.5 4.3-2.8 2.7-1.3 6.9-3.6 9.4-5 6-3.5 5.3-3.4 25.6-3.5 14.2-.2 17.3.1 17.3 1.2zM654.4 802.3c-18.8 22.6-35 47.6-48.8 75.4-4.2 8.4-7.6 15.4-7.6 15.7 0 .3-1.1 2.9-2.4 5.8-5.7 12.7-16.1 43.7-20.2 60.2-2.8 11.2-7.2 32.2-8 37.6-.2 1.9-.9 6.4-1.4 10-.6 3.6-1.1 7.7-1.2 9.2-.2 2.4-2.4 4.6-3.4 3.5-.2-.2 1.9-11.5 4.6-25.3 6.3-31.2 5.9-29.3 6.6-33.4.3-1.9 1.2-6.2 1.9-9.5.8-3.3 1.7-7.5 2-9.3 2.9-16.8 2.5-15.9 26-61.7 5.1-9.9 15.4-30.2 23-45 7.6-14.9 14.3-27.3 14.9-27.7.6-.3 5.8-4 11.6-8.1s10.6-7.5 10.8-7.6c.1-.1-3.6 4.6-8.4 10.2zM345 931.2c.1 10.6.6 25.3 1.5 55l.7 20.8-2.9.1c-1.5.1-4.4.2-6.3.4-10.3.7-24.3 1.6-30 2-3.6.2-10.1.7-14.5 1-4.4.3-12 .8-16.8 1l-8.8.5 8.2-9.7c4.5-5.4 10.1-12.1 12.5-14.8 2.3-2.8 9.7-11.5 16.4-19.5 6.8-8 13.8-16.3 15.7-18.5 1.8-2.2 7.7-9.3 13.1-15.7 5.3-6.4 10-11.7 10.3-11.7.4-.1.8 4.1.9 9.1zm1253.1 71c.1 4 .2 10.9.4 15.3.6 18.4.8 31.5.4 31.8-.2.2-7.6 2.1-16.4 4.1-8.8 2.1-17.3 4.2-19 4.7-1.6.4-4.1 1.1-5.5 1.3-3.7.8-13 3-27.5 6.5-44.8 10.7-71 16.9-71.2 16.7-.1-.1.8-1.3 2-2.7 3.4-3.8 13.1-15.1 15.3-17.8 1-1.3 3.7-4.5 5.9-7.1 11-12.8 14-16.3 15.9-18.8 1.1-1.5 2.5-3.2 3.1-3.8.5-.6 3.1-3.5 5.6-6.5 2.5-3 5.7-6.6 7-8.1 1.3-1.5 4.6-3.3 7.4-4.2 2.8-.8 9.5-2.9 15-4.6 5.5-1.8 14.1-4 19-5 5-1.1 12.2-2.6 16.1-3.4 3.9-.9 8.6-1.8 10.5-2.1 1.9-.3 5.7-1.2 8.4-1.9 7.8-2.2 7.5-2.4 7.6 5.6zM235 1063c7.5 1.1 13.1 1.9 18 2.5 10.8 1.5 15.1 2.3 15.6 2.8.2.2-2.2.9-5.3 1.6-8.2 1.8-51.4 12.1-53.8 12.8-1.2.4.2-1.9 4-6.4 3.3-3.8 7.3-8.6 9-10.6 3.3-4.1 3.2-4.1 12.5-2.7zm898.1 361.9c-1.8 3.3-.5 2.8-39.5 14.3-5.4 1.6-10 2.7-10.2 2.5-.2-.2 2.4-1.2 5.8-2.2 5.7-1.7 21.2-7.2 26.3-9.4 2.7-1.2 8.8-3.9 13.8-6.1 4.7-2.1 5.3-2 3.8.9zm-52.6 18.1c-2.7 1.2-4.3 1.2-2.5 0 .8-.5 2.2-.9 3-.9 1 0 .8.3-.5.9zm-4.6 1.4c-.2.2-2.9 1.1-5.9 1.9-3 .8-17.6 5.2-32.5 9.7-26.8 8.1-31.9 9.1-40.5 7.6-2.5-.5-21.2-1.8-26.2-2-4.5-.1-3.2-1.3 1.5-1.4 8-.3 22.2-1.3 30.7-2.3 19.5-2.2 20.7-2.4 31-4.4 4.1-.8 8.9-1.7 10.7-2 1.7-.3 8.9-2 16-3.9 12.3-3.3 16.1-4.1 15.2-3.2zm-192.3 10.4c-1 .2-2.2 0-2.8-.6-.6-.6 0-.7 1.9-.4 2.1.5 2.3.7.9 1zm82.2 5.9c-1 .2-2.6.2-3.5 0-1-.3-.2-.5 1.7-.5s2.7.2 1.8.5z"/><path d="M1299 1376c-4.7 3.2-12.3 8.5-17 11.7-4.7 3.1-8.9 6.1-9.5 6.6-.9.8-12.1 8.5-40.6 28.2-5.6 3.8-12.2 8.4-14.6 10.1l-4.5 3.2 4.9 3.3c2.6 1.9 18.3 12.5 34.8 23.6 16.5 11.1 30.5 20.6 31 21 .6.5 7.3 5.1 15 10.3 7.7 5.1 16.1 10.8 18.8 12.7 11.8 8.3 45.4 31.6 60.7 42.2 5.2 3.6 9.7 6.8 10 7.1.3.3 4.6 3.3 9.5 6.7 9.9 6.7 8.9 6.7 15.9.6l3.7-3.3-14.5-28.7c-26.4-52.9-35.5-70.3-40.3-77.6-2.6-4-5.2-8-5.8-8.9-.5-1-4.5-7.3-8.8-14-31.1-48.9-38.5-60.2-39.3-60.5-.5-.2-4.7 2.4-9.4 5.7zM714 1445.9c0 1-.3 2.1-.7 2.5-.4.3-.8 1.4-.9 2.3-.2 1-.8 2.6-1.3 3.8-.6 1.1-6.7 17.3-13.7 36-6.9 18.7-15.9 43-20.1 54-9.5 25.3-9.7 26-18.8 56.5-4.3 14-12.4 41-18.1 59.9-5.7 19-10.3 34.6-10.1 34.7 2 1.7 10.9 6.5 11.6 6.2.5-.1 21.5-20.6 46.6-45.3 40.8-40.2 52.2-52.2 75.5-79.4 3.5-4.2 6.9-8.1 7.5-8.7.6-.6 3.1-3.5 5.6-6.4 2.4-2.9 4.9-5.8 5.4-6.4.6-.6 3.9-4.5 7.5-8.6 3.5-4.1 7.1-8.2 8-9.1.8-.9 2.4-2.7 3.5-4 1.1-1.3 6.1-7.1 11-12.8 5-5.7 10-11.6 11.2-13.1l2.2-2.7-9.7-5.3c-14.5-8-53.6-29.6-59.7-33-1.6-.9-5.5-3-8.5-4.7-3-1.7-11.1-6.1-18-9.9-15.7-8.7-16-8.8-16-6.5zM1158.5 1454.5c-2.8 1.3-13.5 5.7-18 7.5-1.1.4-4.7 1.9-8 3.3s-18.4 7.5-33.5 13.7c-15.1 6.1-29.3 11.9-31.5 12.9-2.2 1-6.1 2.6-8.7 3.6-2.7 1-4.8 2-4.8 2.2 0 .2.9 1.6 1.9 3.1 1.6 2.3 32.3 53.6 35.7 59.7.6 1.1 5 8.4 9.7 16.3 4.8 7.9 8.7 14.5 8.7 14.8 0 .3 1.8 3.2 4 6.5s4 6.2 4 6.5c0 .2 1.7 3.2 3.8 6.6 2.1 3.5 8 14.4 13.1 24.3 5.2 9.9 11.9 22.9 15.1 29 3.2 6 9.5 18.2 14 27 4.6 8.8 11.9 23 16.4 31.6l8 15.6 6.6-2.2c7-2.4 6.8-2 5.4-9.5-1.6-8.4-2.6-13.9-3-16.5-.2-1.7-.7-4-1-5.3-.2-1.3-1.3-7.3-2.4-13.5-1.1-6.2-2.2-12.3-2.5-13.7-.5-2.5-2.2-11.5-3.1-16.7-.3-1.6-.7-3.9-1-5.3-.2-1.4-1.8-9.9-3.4-19-1.7-9.1-3.2-17.6-3.5-19-1-5-2.8-15.2-3.9-22.8-.3-1.5-.7-6.3-1.1-10.7-.3-4.4-.8-9.1-1-10.5-.3-2.4-1.2-11.5-2-20.5-.1-2.2-.5-6.3-.8-9-.4-2.8-.9-8.2-1.2-12-.3-3.9-.8-8.8-1-11-.2-2.2-.7-6.9-1-10.5-.4-3.6-.8-7.6-1-9-.2-1.4-.6-5.9-1-10-.3-4.1-.7-9.1-1-11-.2-1.9-.7-6.9-1.1-11-.3-4.1-.8-8.4-.9-9.5-.1-1.1-.3-3.2-.4-4.8-.1-3-.4-3.1-4.6-1.2zM861.4 1507.7c1.2 14 1.7 19.7 2.1 22.8.2 1.6.7 6.1 1 10 .3 3.8.8 8.8 1 11 .2 2.2.7 7.1 1 11 .4 3.8.9 8.6 1.1 10.5.2 1.9.6 6.9.9 11 .3 4.1.8 8.6 1 10 .3 2.2.8 6.6 2 21 .5 6.2 1.6 17.4 2 21 1.1 9.7 2 24.7 3 51 .3 6.3.7 14.2 1 17.5.2 3.3.7 12.5 1.1 20.5.3 8 .7 16.7.9 19.5 2.1 30 2.3 61.2 1.2 158.3-.3 29.1-.1 38.5.8 38.8.6.3 3.8.6 7 .7l5.9.2 4.3-18.5c2.4-10.2 5.9-25.3 7.8-33.5 2-8.3 3.8-16.1 4.1-17.5.2-1.4.7-3.3 1-4.2.3-.9.7-2.5.9-3.5.2-1 2.6-11.5 5.4-23.3 2.7-11.8 6.2-26.7 7.6-33 1.5-6.3 3.3-12.9 4-14.5.7-1.7 4.3-10.2 8-19s7.5-17.8 8.5-20c3.7-8.5 5.1-11.6 12.8-30 4.4-10.5 11.9-28.2 16.7-39.5 9.1-21.5 11.3-26.9 11.9-30.4.2-1.2 3.6-14.7 7.6-30.1 3.9-15.4 7.3-28.7 7.5-29.5.6-2.4 13.3-52.1 17.6-68.9 2.2-8.4 3.8-15.5 3.5-15.8-.7-.7-13.4-1.7-34.1-2.8-5.5-.3-13.3-.8-29-2-14.1-1-22.5-1.6-30-2-4.4-.3-11.1-.7-15-1-13.8-.9-23.1-1.5-30.5-2-4.1-.3-11.3-.7-15.9-1l-8.3-.6.6 7.8z"/></svg>